ply
format ascii 1.0
comment Created by Blender 3.0.0 - www.blender.org
element vertex 4
property float x
property float y
property float z
property uchar red
property uchar green
property uchar blue
property uchar alpha
element face 2
property list uchar uint vertex_indices
end_header
1024.000000 -1024.000000 0.000000 255 255 255 255
-1024.000000 1024.000000 0.000000 255 255 255 255
-1024.000000 -1024.000000 0.000000 255 255 255 255
1024.000000 1024.000000 0.000000 255 255 255 255
3 0 1 2
3 0 3 1
