ply
format ascii 1.0
comment Created by Blender 3.0.0 - www.blender.org
element vertex 16
property float x
property float y
property float z
property uchar red
property uchar green
property uchar blue
property uchar alpha
element face 8
property list uchar uint vertex_indices
end_header
0.100000 0.000000 0.000000 177 212 128 255
-0.100000 0.000000 1.000000 252 239 141 255
-0.100000 0.000000 0.000000 177 212 128 255
-0.177007 0.339989 0.000000 177 212 128 255
-0.346443 0.233727 0.674558 252 239 141 255
-0.346443 0.233727 0.000000 177 212 128 255
0.558535 -0.028759 0.001197 177 212 128 255
0.421171 0.116606 0.675755 252 239 141 255
0.421171 0.116606 0.001197 177 212 128 255
-0.258418 -0.316661 -0.004234 177 212 128 255
-0.087634 -0.273092 0.407391 252 239 141 255
-0.281761 -0.320692 0.403157 252 239 141 255
0.100000 0.000000 1.000000 252 239 141 255
-0.177007 0.339989 0.674558 252 239 141 255
0.558535 -0.028759 0.675755 252 239 141 255
-0.064291 -0.269060 0.000000 177 212 128 255
3 0 1 2
3 3 4 5
3 6 7 8
3 9 10 11
3 0 12 1
3 3 13 4
3 6 14 7
3 9 15 10
