ply
format ascii 1.0
comment Created by Blender 3.0.0 - www.blender.org
element vertex 106
property float x
property float y
property float z
property uchar red
property uchar green
property uchar blue
property uchar alpha
element face 192
property list uchar uint vertex_indices
end_header
-0.000000 0.127434 1.307652 65 32 81 255
-0.000000 -0.000000 1.333000 65 32 81 255
0.090109 0.090109 1.307652 65 32 81 255
0.000000 -0.000000 0.667000 65 32 81 255
-0.000000 0.127434 0.692348 65 32 81 255
0.090109 0.090109 0.692348 65 32 81 255
-0.000000 0.235467 0.764533 65 32 81 255
0.217543 0.217543 0.872566 65 32 81 255
0.166500 0.166500 0.764533 65 32 81 255
0.000000 0.307652 1.127434 65 32 81 255
0.235467 0.235467 1.000000 65 32 81 255
0.000000 0.333000 1.000000 65 32 81 255
-0.000000 0.235467 1.235467 65 32 81 255
0.166500 0.166500 1.235467 65 32 81 255
0.000000 0.307652 0.872566 65 32 81 255
0.217543 0.217543 1.127434 65 32 81 255
0.333000 -0.000000 1.000000 65 32 81 255
0.235467 -0.000000 1.235467 65 32 81 255
0.235467 -0.000000 0.764533 65 32 81 255
0.127434 -0.000000 0.692348 65 32 81 255
0.307652 -0.000000 0.872566 65 32 81 255
0.307652 -0.000000 1.127434 65 32 81 255
0.127434 -0.000000 1.307652 65 32 81 255
0.090109 -0.090109 0.692348 65 32 81 255
0.235467 -0.235467 1.000000 65 32 81 255
0.217543 -0.217543 0.872566 65 32 81 255
0.217543 -0.217543 1.127434 65 32 81 255
0.090109 -0.090109 1.307652 65 32 81 255
0.166500 -0.166500 0.764533 65 32 81 255
0.166500 -0.166500 1.235467 65 32 81 255
0.000000 -0.307652 1.127434 65 32 81 255
0.000000 -0.127434 1.307652 65 32 81 255
0.000000 -0.127434 0.692348 65 32 81 255
0.000000 -0.235467 0.764533 65 32 81 255
0.000000 -0.333000 1.000000 65 32 81 255
0.000000 -0.235467 1.235467 65 32 81 255
-0.000000 -0.307652 0.872566 65 32 81 255
-0.090109 -0.090109 0.692348 65 32 81 255
-0.166500 -0.166500 0.764533 65 32 81 255
-0.235467 -0.235467 1.000000 65 32 81 255
-0.090109 -0.090109 1.307652 65 32 81 255
-0.166500 -0.166500 1.235467 65 32 81 255
-0.217543 -0.217543 0.872566 65 32 81 255
-0.217543 -0.217543 1.127434 65 32 81 255
-0.127434 -0.000000 1.307652 65 32 81 255
-0.235467 -0.000000 1.235467 65 32 81 255
-0.127434 -0.000000 0.692348 65 32 81 255
-0.333000 -0.000000 1.000000 65 32 81 255
-0.307652 -0.000000 0.872566 65 32 81 255
-0.307652 -0.000000 1.127434 65 32 81 255
-0.235467 -0.000000 0.764533 65 32 81 255
-0.090109 0.090109 0.692348 65 32 81 255
-0.235467 0.235467 1.000000 65 32 81 255
-0.217543 0.217543 0.872566 65 32 81 255
-0.217543 0.217543 1.127434 65 32 81 255
-0.090109 0.090109 1.307652 65 32 81 255
-0.166500 0.166500 0.764533 65 32 81 255
-0.166500 0.166500 1.235467 65 32 81 255
0.000000 0.500000 0.000000 65 32 81 255
0.000000 0.000000 1.000000 65 32 81 255
0.353553 0.353553 0.000000 65 32 81 255
0.500000 -0.000000 0.000000 65 32 81 255
0.353553 -0.353553 0.000000 65 32 81 255
-0.000000 -0.500000 0.000000 65 32 81 255
-0.353553 -0.353553 0.000000 65 32 81 255
-0.500000 0.000000 0.000000 65 32 81 255
-0.353553 0.353553 0.000000 65 32 81 255
0.000000 -0.803592 0.347101 114 182 207 255
-0.000000 0.113446 0.883022 114 182 207 255
-0.353553 -0.723266 0.279700 114 182 207 255
-0.500000 -0.529342 0.116978 114 182 207 255
0.500000 -0.529341 0.116978 114 182 207 255
0.353554 -0.723266 0.279699 114 182 207 255
-0.500000 -0.000000 1.200000 161 77 85 255
0.000000 0.500000 1.200000 161 77 85 255
0.500000 0.000000 1.200000 161 77 85 255
-0.500000 -0.000000 1.200000 161 77 85 255
-0.190712 0.190712 1.200000 161 77 85 255
-0.353553 0.353553 1.200000 161 77 85 255
0.353553 0.353553 1.200000 161 77 85 255
0.353553 0.353553 1.200000 161 77 85 255
0.353553 -0.353553 1.200000 161 77 85 255
0.353553 -0.353553 1.200000 161 77 85 255
0.000000 -0.500000 1.200000 161 77 85 255
-0.353553 -0.353553 1.200000 161 77 85 255
-0.353553 -0.353553 1.200000 161 77 85 255
-0.353553 0.353553 1.200000 161 77 85 255
0.500000 0.000000 1.200000 161 77 85 255
0.000000 -0.500000 1.200000 161 77 85 255
0.000000 0.500000 1.200000 161 77 85 255
0.190712 0.190712 1.200000 161 77 85 255
-0.000000 0.269708 1.385887 161 77 85 255
0.190712 0.190712 1.698290 161 77 85 255
0.269708 -0.000000 1.200000 161 77 85 255
0.000000 -0.269708 1.200000 161 77 85 255
-0.269708 -0.000000 1.200000 161 77 85 255
-0.000000 0.269708 1.200000 161 77 85 255
0.190712 -0.190712 1.200000 161 77 85 255
-0.190712 -0.190712 1.200000 161 77 85 255
-0.223025 -0.000000 1.698290 161 77 85 255
0.000000 -0.269708 1.385887 161 77 85 255
0.001435 -0.000000 1.421467 161 77 85 255
0.223025 -0.000000 1.698290 161 77 85 255
0.190712 -0.190712 1.698290 161 77 85 255
-0.190712 -0.190712 1.698290 161 77 85 255
-0.190712 0.190712 1.698290 161 77 85 255
3 0 1 2
3 3 4 5
3 6 7 8
3 9 10 11
3 12 2 13
3 6 5 4
3 11 7 14
3 12 15 9
3 15 16 10
3 2 17 13
3 5 18 19
3 7 16 20
3 15 17 21
3 2 1 22
3 3 5 19
3 7 18 8
3 18 23 19
3 20 24 25
3 17 26 21
3 22 1 27
3 3 19 23
3 20 28 18
3 21 24 16
3 17 27 29
3 29 30 26
3 27 1 31
3 3 23 32
3 25 33 28
3 26 34 24
3 27 35 29
3 23 33 32
3 25 34 36
3 3 32 37
3 36 38 33
3 30 39 34
3 35 40 41
3 33 37 32
3 36 39 42
3 35 43 30
3 31 1 40
3 41 44 45
3 38 46 37
3 42 47 48
3 41 49 43
3 40 1 44
3 3 37 46
3 42 50 38
3 43 47 39
3 50 51 46
3 48 52 53
3 45 54 49
3 44 1 55
3 3 46 51
3 48 56 50
3 49 52 47
3 45 55 57
3 55 1 0
3 3 51 4
3 53 6 56
3 54 11 52
3 57 0 12
3 56 4 51
3 53 11 14
3 57 9 54
3 6 14 7
3 9 15 10
3 12 0 2
3 6 8 5
3 11 10 7
3 12 13 15
3 15 21 16
3 2 22 17
3 5 8 18
3 7 10 16
3 15 13 17
3 7 20 18
3 18 28 23
3 20 16 24
3 17 29 26
3 20 25 28
3 21 26 24
3 17 22 27
3 29 35 30
3 25 36 33
3 26 30 34
3 27 31 35
3 23 28 33
3 25 24 34
3 36 42 38
3 30 43 39
3 35 31 40
3 33 38 37
3 36 34 39
3 35 41 43
3 41 40 44
3 38 50 46
3 42 39 47
3 41 45 49
3 42 48 50
3 43 49 47
3 50 56 51
3 48 47 52
3 45 57 54
3 48 53 56
3 49 54 52
3 45 44 55
3 53 14 6
3 54 9 11
3 57 55 0
3 56 6 4
3 53 52 11
3 57 12 9
3 58 59 60
3 60 59 61
3 61 59 62
3 62 59 63
3 63 59 64
3 64 59 65
3 62 64 66
3 65 59 66
3 66 59 58
3 66 58 60
3 60 61 62
3 62 63 64
3 64 65 66
3 66 60 62
3 67 68 69
3 69 68 70
3 71 68 72
3 72 68 67
3 73 74 75
3 76 77 78
3 74 79 80
3 75 81 82
3 83 84 85
3 73 78 86
3 80 87 75
3 82 88 83
3 85 76 73
3 86 89 74
3 90 91 92
3 79 93 87
3 81 94 88
3 84 95 76
3 78 96 89
3 79 96 90
3 87 97 81
3 88 98 84
3 99 100 101
3 97 102 103
3 98 100 104
3 77 99 105
3 90 102 93
3 97 100 94
3 98 99 95
3 77 91 96
3 73 86 74
3 74 80 75
3 75 82 83
3 83 85 75
3 85 73 75
3 76 95 77
3 74 89 79
3 75 87 81
3 83 88 84
3 73 76 78
3 80 79 87
3 82 81 88
3 85 84 76
3 86 78 89
3 90 96 91
3 79 90 93
3 81 97 94
3 84 98 95
3 78 77 96
3 79 89 96
3 87 93 97
3 88 94 98
3 91 105 99
3 99 104 100
3 100 103 102
3 102 92 91
3 91 101 102
3 97 93 102
3 98 94 100
3 77 95 99
3 90 92 102
3 97 103 100
3 98 104 99
3 77 105 91
3 101 91 99
3 101 100 102
