ply
format ascii 1.0
comment Created by Blender 3.0.0 - www.blender.org
element vertex 31
property float x
property float y
property float z
property uchar red
property uchar green
property uchar blue
property uchar alpha
element face 50
property list uchar uint vertex_indices
end_header
-0.062351 0.354313 0.384024 92 72 106 255
-0.579854 -0.421285 0.659716 136 125 141 255
-0.579854 -0.421285 0.659716 68 53 93 255
0.276388 0.850649 0.447220 68 53 93 255
-0.262869 0.809012 0.525738 68 53 93 255
0.793022 -0.322419 0.276512 68 53 93 255
0.688189 0.499997 0.525736 68 53 93 255
0.343439 -0.249460 0.452784 68 53 93 255
0.276388 0.850649 0.447220 136 125 141 255
-0.850648 0.000000 0.525736 136 125 141 255
-0.850648 0.000000 0.525736 68 53 93 255
0.055834 -0.583375 0.481307 68 53 93 255
1.235282 0.445473 -0.000000 68 53 93 255
0.587786 0.809017 0.000000 68 53 93 255
0.000000 1.000000 0.000000 68 53 93 255
-0.587786 0.809017 0.000000 68 53 93 255
-0.951058 0.309013 0.000000 68 53 93 255
-0.951058 -0.309013 0.000000 68 53 93 255
-0.587786 -0.809017 0.000000 68 53 93 255
0.000000 -1.000000 0.000000 68 53 93 255
0.587786 -0.809017 0.000000 68 53 93 255
1.298569 -0.593517 -0.000000 68 53 93 255
1.235282 0.445473 -0.000000 136 125 141 255
0.055834 -0.583375 0.481307 136 125 141 255
0.793022 -0.322419 0.276512 136 125 141 255
0.343439 -0.249460 0.452784 136 125 141 255
0.688189 0.499997 0.525736 136 125 141 255
-0.062351 0.354313 0.384024 136 125 141 255
1.298569 -0.593517 -0.000000 136 125 141 255
1.235282 0.445473 -0.000000 255 255 255 255
1.298569 -0.593517 -0.000000 255 255 255 255
3 0 1 2
3 3 4 0
3 5 6 7
3 7 6 0
3 0 8 3
3 2 9 10
3 2 7 0
3 2 11 7
3 12 6 5
3 12 13 6
3 13 3 6
3 14 4 3
3 14 15 4
3 15 0 4
3 16 10 0
3 16 17 10
3 17 2 10
3 18 11 2
3 18 19 11
3 20 5 11
3 20 21 5
3 13 14 3
3 15 16 0
3 17 18 2
3 19 20 11
3 5 22 12
3 23 24 25
3 26 8 27
3 27 9 1
3 28 22 24
3 11 25 7
3 29 28 30
3 10 27 0
3 6 27 0
3 21 24 5
3 5 23 11
3 3 26 6
3 7 24 5
3 0 27 1
3 0 27 8
3 2 1 9
3 5 24 22
3 11 23 25
3 29 22 28
3 10 9 27
3 6 26 27
3 21 28 24
3 5 24 23
3 3 8 26
3 7 25 24
