ply
format ascii 1.0
comment Created by Blender 3.0.0 - www.blender.org
element vertex 160
property float x
property float y
property float z
property uchar red
property uchar green
property uchar blue
property uchar alpha
element face 120
property list uchar uint vertex_indices
end_header
0.100000 0.000000 0.000000 177 212 128 255
-0.100000 -0.000000 0.746287 246 237 139 255
-0.100000 0.000000 0.000000 177 212 128 255
0.100000 -0.000000 0.746287 252 239 141 255
-0.100000 -0.194450 1.073273 246 237 139 255
0.100000 -0.194450 1.073273 252 239 141 255
-0.100000 -0.546140 1.231030 246 237 139 255
0.100000 -0.546140 1.231030 252 239 141 255
1.736096 -0.305045 0.000000 177 212 128 255
1.591713 -0.443442 1.157274 246 237 139 255
1.591713 -0.443442 0.000000 177 212 128 255
1.736096 -0.305045 1.157274 252 239 141 255
1.726270 -0.583818 1.664335 246 237 139 255
1.870653 -0.445421 1.664335 252 239 141 255
1.969634 -0.837706 1.908970 246 237 139 255
2.114016 -0.699309 1.908970 252 239 141 255
-0.764439 -1.459845 0.000000 177 212 128 255
-0.636122 -1.306434 1.293154 246 237 139 255
-0.636122 -1.306434 0.000000 177 212 128 255
-0.764439 -1.459845 1.293154 252 239 141 255
-0.785276 -1.181678 1.859750 246 237 139 255
-0.913593 -1.335089 1.859750 252 239 141 255
-1.055040 -0.956040 2.133108 246 237 139 255
-1.183357 -1.109451 2.133108 252 239 141 255
-2.341558 -0.183541 0.000000 177 212 128 255
-2.249582 -0.005945 1.715053 246 237 139 255
-2.249582 -0.005945 0.000000 177 212 128 255
-2.341558 -0.183541 1.715053 252 239 141 255
-2.422250 0.083479 2.466504 246 237 139 255
-2.514226 -0.094117 2.466504 252 239 141 255
-2.734543 0.245214 2.829047 246 237 139 255
-2.826519 0.067618 2.829047 252 239 141 255
0.597575 -4.627143 0.000000 177 212 128 255
0.397575 -4.627143 0.746287 246 237 139 255
0.397575 -4.627143 0.000000 177 212 128 255
0.597575 -4.627143 0.746287 252 239 141 255
0.397575 -4.821594 1.073273 246 237 139 255
0.597575 -4.821594 1.073273 252 239 141 255
0.397575 -5.173283 1.231030 246 237 139 255
0.597575 -5.173283 1.231030 252 239 141 255
1.570178 2.099668 0.084829 177 212 128 255
1.498973 1.912772 0.831116 246 237 139 255
1.498973 1.912772 0.084829 177 212 128 255
1.570178 2.099668 0.831116 252 239 141 255
1.680682 1.843543 1.158102 246 237 139 255
1.751887 2.030438 1.158102 252 239 141 255
2.009327 1.718332 1.315858 246 237 139 255
2.080532 1.905227 1.315858 252 239 141 255
3.618608 -1.663451 0.000000 177 212 128 255
3.760190 -1.522190 1.236044 246 237 139 255
3.760190 -1.522190 0.000000 177 212 128 255
3.618608 -1.663451 1.236044 252 239 141 255
3.622849 -1.384537 1.777618 246 237 139 255
3.481267 -1.525797 1.777618 252 239 141 255
3.374451 -1.135572 2.038904 246 237 139 255
3.232869 -1.276832 2.038904 252 239 141 255
2.244943 -2.603082 0.000000 177 212 128 255
2.249403 -2.403132 1.916746 246 237 139 255
2.249403 -2.403132 0.000000 177 212 128 255
2.244943 -2.603082 1.916746 252 239 141 255
2.055001 -2.398796 2.756569 246 237 139 255
2.050541 -2.598746 2.756569 252 239 141 255
1.703399 -2.390953 3.161748 246 237 139 255
1.698940 -2.590904 3.161748 252 239 141 255
3.199464 -0.019456 0.000000 177 212 128 255
3.216981 -0.218687 2.141797 246 237 139 255
3.216981 -0.218687 0.000000 177 212 128 255
3.199464 -0.019456 2.141797 252 239 141 255
3.410684 -0.201656 3.080227 246 237 139 255
3.393167 -0.002424 3.080227 252 239 141 255
3.761022 -0.170853 3.532979 246 237 139 255
3.743505 0.028379 3.532979 252 239 141 255
5.217379 0.190955 0.000000 177 212 128 255
5.277705 0.000270 2.840571 246 237 139 255
5.277705 0.000270 0.000000 177 212 128 255
5.217379 0.190955 2.840571 252 239 141 255
5.463099 0.058922 4.085169 246 237 139 255
5.402773 0.249607 4.085169 252 239 141 255
5.798409 0.165001 4.685635 246 237 139 255
5.738083 0.355686 4.685635 252 239 141 255
-0.001789 1.260719 0.000000 177 212 128 255
0.139794 1.401980 1.236044 246 237 139 255
0.139794 1.401980 0.000000 177 212 128 255
-0.001789 1.260720 1.236044 252 239 141 255
0.002453 1.539633 1.777618 246 237 139 255
-0.139129 1.398373 1.777618 252 239 141 255
-0.245945 1.788598 2.038904 246 237 139 255
-0.387528 1.647338 2.038904 252 239 141 255
4.060849 -4.188218 0.140498 177 212 128 255
3.979252 -4.005620 1.376543 246 237 139 255
3.979252 -4.005620 0.140498 177 212 128 255
4.060849 -4.188218 1.376543 252 239 141 255
3.801721 -4.084953 1.918116 246 237 139 255
3.883318 -4.267551 1.918116 252 239 141 255
3.480633 -4.228437 2.179402 246 237 139 255
3.562230 -4.411035 2.179402 252 239 141 255
-3.333982 -4.494670 0.000000 177 212 128 255
-3.169721 -4.608768 1.157274 246 237 139 255
-3.169721 -4.608768 0.000000 177 212 128 255
-3.333982 -4.494670 1.157274 252 239 141 255
-3.058788 -4.449066 1.664335 246 237 139 255
-3.223049 -4.334967 1.664335 252 239 141 255
-2.858152 -4.160223 1.908970 246 237 139 255
-3.022412 -4.046124 1.908970 252 239 141 255
-2.583920 4.877851 0.000000 177 212 128 255
-2.617049 4.680614 1.293154 246 237 139 255
-2.617049 4.680614 0.000000 177 212 128 255
-2.583919 4.877851 1.293154 252 239 141 255
-2.425285 4.648403 1.859750 246 237 139 255
-2.392155 4.845640 1.859750 252 239 141 255
-2.078455 4.590146 2.133108 246 237 139 255
-2.045325 4.787383 2.133108 252 239 141 255
-2.375494 -2.380333 0.000000 177 212 128 255
-2.542006 -2.269546 1.236044 246 237 139 255
-2.542006 -2.269546 0.000000 177 212 128 255
-2.375494 -2.380333 1.236044 252 239 141 255
-2.649719 -2.431437 1.777618 246 237 139 255
-2.483207 -2.542224 1.777618 252 239 141 255
-2.844532 -2.724240 2.038904 246 237 139 255
-2.678020 -2.835027 2.038904 252 239 141 255
-1.182322 -3.540591 0.000000 177 212 128 255
-1.379192 -3.575837 1.916746 246 237 139 255
-1.379192 -3.575837 0.000000 177 212 128 255
-1.182322 -3.540591 1.916746 252 239 141 255
-1.344925 -3.767244 2.756569 246 237 139 255
-1.148055 -3.731999 2.756569 252 239 141 255
-1.282948 -4.113429 3.161748 246 237 139 255
-1.086078 -4.078184 3.161748 252 239 141 255
-3.903851 -3.116898 0.000000 177 212 128 255
-3.712040 -3.060253 2.141797 246 237 139 255
-3.712040 -3.060253 0.000000 177 212 128 255
-3.903851 -3.116898 2.141797 252 239 141 255
-3.767113 -2.873765 3.080227 246 237 139 255
-3.958924 -2.930409 3.080227 252 239 141 255
-3.866719 -2.536476 3.532979 246 237 139 255
-4.058530 -2.593120 3.532979 252 239 141 255
-4.509907 -1.180677 0.000000 177 212 128 255
-4.334955 -1.083766 2.840571 246 237 139 255
-4.334955 -1.083766 0.000000 177 212 128 255
-4.509907 -1.180677 2.840571 252 239 141 255
-4.429177 -0.913668 4.085169 246 237 139 255
-4.604129 -1.010579 4.085169 252 239 141 255
-4.599589 -0.606024 4.685635 246 237 139 255
-4.774541 -0.702935 4.685635 252 239 141 255
-1.866212 2.145087 0.000000 177 212 128 255
-1.916930 1.951625 1.236044 246 237 139 255
-1.916930 1.951625 0.000000 177 212 128 255
-1.866212 2.145087 1.236044 252 239 141 255
-1.728836 1.902313 1.777618 246 237 139 255
-1.678118 2.095775 1.777618 252 239 141 255
-1.388644 1.813127 2.038904 246 237 139 255
-1.337925 2.006589 2.038904 252 239 141 255
0.011597 -1.446618 0.140498 177 212 128 255
-0.151214 -1.562776 1.376543 246 237 139 255
-0.151214 -1.562776 0.140498 177 212 128 255
0.011597 -1.446618 1.376543 252 239 141 255
-0.038279 -1.721069 1.918116 246 237 139 255
0.124532 -1.604911 1.918116 252 239 141 255
0.165979 -2.007362 2.179402 246 237 139 255
0.328790 -1.891204 2.179402 252 239 141 255
3 0 1 2
3 3 4 1
3 5 6 4
3 0 3 1
3 3 5 4
3 5 7 6
3 8 9 10
3 11 12 9
3 13 14 12
3 8 11 9
3 11 13 12
3 13 15 14
3 16 17 18
3 19 20 17
3 21 22 20
3 16 19 17
3 19 21 20
3 21 23 22
3 24 25 26
3 27 28 25
3 29 30 28
3 24 27 25
3 27 29 28
3 29 31 30
3 32 33 34
3 35 36 33
3 37 38 36
3 32 35 33
3 35 37 36
3 37 39 38
3 40 41 42
3 43 44 41
3 45 46 44
3 40 43 41
3 43 45 44
3 45 47 46
3 48 49 50
3 51 52 49
3 53 54 52
3 48 51 49
3 51 53 52
3 53 55 54
3 56 57 58
3 59 60 57
3 61 62 60
3 56 59 57
3 59 61 60
3 61 63 62
3 64 65 66
3 67 68 65
3 69 70 68
3 64 67 65
3 67 69 68
3 69 71 70
3 72 73 74
3 75 76 73
3 77 78 76
3 72 75 73
3 75 77 76
3 77 79 78
3 80 81 82
3 83 84 81
3 85 86 84
3 80 83 81
3 83 85 84
3 85 87 86
3 88 89 90
3 91 92 89
3 93 94 92
3 88 91 89
3 91 93 92
3 93 95 94
3 96 97 98
3 99 100 97
3 101 102 100
3 96 99 97
3 99 101 100
3 101 103 102
3 104 105 106
3 107 108 105
3 109 110 108
3 104 107 105
3 107 109 108
3 109 111 110
3 112 113 114
3 115 116 113
3 117 118 116
3 112 115 113
3 115 117 116
3 117 119 118
3 120 121 122
3 123 124 121
3 125 126 124
3 120 123 121
3 123 125 124
3 125 127 126
3 128 129 130
3 131 132 129
3 133 134 132
3 128 131 129
3 131 133 132
3 133 135 134
3 136 137 138
3 139 140 137
3 141 142 140
3 136 139 137
3 139 141 140
3 141 143 142
3 144 145 146
3 147 148 145
3 149 150 148
3 144 147 145
3 147 149 148
3 149 151 150
3 152 153 154
3 155 156 153
3 157 158 156
3 152 155 153
3 155 157 156
3 157 159 158
