ply
format ascii 1.0
comment Created by Blender 3.0.0 - www.blender.org
element vertex 7
property float x
property float y
property float z
property uchar red
property uchar green
property uchar blue
property uchar alpha
element face 3
property list uchar uint vertex_indices
end_header
1.000000 -1.000000 0.000000 199 66 79 255
-1.000000 1.000000 0.000000 199 66 79 255
-1.000000 -1.000000 0.000000 199 66 79 255
1.000000 1.000000 0.000000 199 66 79 255
-1.000000 2.000000 0.000000 224 107 81 255
1.000000 2.000000 0.000000 224 107 81 255
1.000000 4.000000 0.000000 224 107 81 255
3 0 1 2
3 0 3 1
3 4 5 6
